# xmcd
#
# Track frame offsets: 
#        225
#        11979
#        26715
#        38726
#        49229
#        61514
#        80021
#        93908
#        105131
#        118452
#        135756
#        144564
#        156843
#        170779
#        180079
#        192073
#        200746
#        211874
#        224522
#        238752
#        252211
#        266183
#        279054
#        290776
#        296718
#
# Disc length: 4134 seconds
#
# Revision: 0
# Processed by: cddbd v1.4PL0 Copyright (c) Steve Scherf et al.
# Submitted via: ExactAudioCopy v0.90b4
#
DISCID=74102319
DTITLE=Various Artist - Stoleti trampingu 1
DYEAR=1999
DGENRE=Country
TTITLE0=Settlers Club - Vlajka
TTITLE1=Brontosauri - Dlouhan Franky
TTITLE2=Wabi Danek - Hudsondsky sify
TTITLE3=KTO - Marta
TTITLE4=Michal Tucny - Buraky
TTITLE5=Wabi and Miki Ryvolove - Osamely mesto (Tereza)
TTITLE6=Settleri - Maminko mamo
TTITLE7=Honza Vycital and Greenhorns - Kabalero
TTITLE8=Cervanek - Jeste spi chata
TTITLE9=Pacifik - Poraneny koleno
TTITLE10=Eva Olmerova - Osamely rvac
TTITLE11=Spojene trampske osady Praha - Trampe kamarade
TTITLE12=Jitka Vrbova - Co nevidet se sejdem
TTITLE13=Rackove - Rikatado
TTITLE14=Wabi and Miki Ryvolove - Jarni kuryr
TTITLE15=Sestry Havelkovy - Az prijde ta chvile 
TTITLE16=Karabina - Vandrovnici
TTITLE17=Usvit - Treseme se v lese
TTITLE18=Brontosauri - Niagara
TTITLE19=Kapitan Kid - Krinolina
TTITLE20=Settlers Club - Az ztichnou bile skaly
TTITLE21=Vaclav Marsalek and Spojene T.O. Praha - Je na zapad cesta dlou
TTITLE21=ha
TTITLE22=Tramp Vergreen Band and Rowers and Karabina - Mexicka svatba
TTITLE23=Zalman and spol. - Pisen posledniho vagonu
TTITLE24=Wabi and Miki Ryvolove - Odjizdim
EXTD=
EXTT0=
EXTT1=
EXTT2=
EXTT3=
EXTT4=
EXTT5=
EXTT6=
EXTT7=
EXTT8=
EXTT9=
EXTT10=
EXTT11=
EXTT12=
EXTT13=
EXTT14=
EXTT15=
EXTT16=
EXTT17=
EXTT18=
EXTT19=
EXTT20=
EXTT21=
EXTT22=
EXTT23=
EXTT24=
PLAYORDER=
